<?xml version="1.0" standalone="no"?>
<!DOCTYPE svg PUBLIC "-//W3C//DTD SVG 20010904//EN"
 "http://www.w3.org/TR/2001/REC-SVG-20010904/DTD/svg10.dtd">
<svg version="1.0" xmlns="http://www.w3.org/2000/svg"
 width="734.000000pt" height="734.000000pt" viewBox="0 0 734.000000 734.000000"
 preserveAspectRatio="xMidYMid meet">

<g transform="translate(0.000000,734.000000) scale(0.100000,-0.100000)"
fill="#000000" stroke="none">
<path d="M3368 7250 c-97 -5 -207 -13 -245 -18 -37 -6 -99 -14 -138 -17 -38
-3 -92 -10 -120 -15 -27 -5 -93 -16 -145 -25 -340 -58 -810 -195 -1050 -307
-243 -113 -428 -216 -564 -314 -34 -24 -72 -52 -85 -61 -36 -26 -141 -114
-141 -118 0 -2 6 -10 13 -17 16 -18 139 -157 163 -185 18 -22 49 -31 56 -15 2
6 65 58 113 95 159 120 421 268 615 347 30 12 69 29 87 36 17 8 37 14 45 14 8
0 18 4 23 9 6 4 64 25 130 46 66 20 131 41 145 46 14 5 45 13 70 19 25 6 72
18 105 26 210 53 442 91 725 121 232 25 856 25 1085 0 285 -30 507 -68 720
-121 33 -8 80 -20 105 -26 25 -6 56 -15 70 -19 14 -5 59 -19 100 -31 41 -12
84 -25 95 -30 11 -4 49 -18 85 -31 194 -68 558 -246 655 -321 59 -46 177 -128
183 -128 7 0 168 197 187 229 4 7 3 16 -2 20 -6 3 -23 16 -39 29 -162 127
-410 272 -619 362 -27 11 -59 25 -70 30 -83 37 -115 50 -123 50 -5 0 -23 7
-38 15 -16 8 -36 15 -45 15 -8 0 -19 4 -25 8 -5 5 -43 18 -84 31 -41 13 -86
27 -100 31 -14 5 -52 16 -85 25 -33 10 -80 23 -105 30 -45 13 -122 31 -260 60
-41 9 -95 20 -120 25 -44 10 -102 19 -265 40 -44 5 -116 15 -160 20 -196 26
-598 34 -947 20z"/>
<path d="M3325 6069 c-181 -15 -407 -48 -570 -83 -38 -8 -98 -21 -132 -28 -34
-7 -65 -16 -69 -20 -4 -5 -15 -8 -24 -8 -20 0 -148 -37 -171 -50 -9 -5 -33
-12 -53 -15 -20 -4 -39 -11 -42 -16 -3 -5 -12 -9 -21 -9 -8 0 -29 -6 -46 -14
-18 -7 -71 -30 -119 -50 -99 -41 -265 -126 -348 -177 -109 -66 -310 -217 -310
-232 0 -4 15 -25 34 -45 18 -20 61 -68 96 -107 34 -38 66 -71 70 -73 5 -2 46
26 92 61 117 91 306 203 433 257 103 44 121 52 140 60 79 36 434 139 550 161
148 28 229 41 310 49 50 6 119 16 155 22 90 17 708 17 815 0 44 -6 118 -16
165 -22 128 -14 315 -49 430 -79 287 -74 467 -140 690 -255 98 -50 278 -165
300 -191 7 -8 18 -15 25 -15 14 0 188 211 193 233 8 37 -358 258 -583 352 -49
20 -104 44 -122 51 -17 8 -38 14 -46 14 -9 0 -18 4 -21 9 -3 5 -22 12 -42 16
-20 3 -44 10 -53 15 -14 8 -60 22 -201 60 -206 57 -503 107 -775 130 -131 11
-609 10 -750 -1z"/>
<path d="M3435 4900 c-82 -5 -163 -11 -180 -15 -16 -3 -73 -13 -125 -20 -52
-8 -126 -21 -165 -30 -38 -9 -88 -20 -110 -25 -72 -16 -287 -91 -372 -130 -99
-46 -243 -130 -243 -142 0 -15 166 -248 177 -248 3 0 31 15 62 34 69 41 170
88 236 111 28 9 57 20 65 25 9 4 31 11 50 14 19 4 44 11 55 16 11 5 45 14 75
20 30 6 87 18 125 25 183 38 328 50 610 50 281 0 419 -11 615 -49 116 -23 254
-58 295 -75 11 -5 49 -19 85 -32 36 -12 106 -44 157 -70 77 -40 93 -46 103
-34 26 31 150 231 150 241 0 25 -212 130 -370 182 -133 45 -144 48 -245 72
-179 41 -219 48 -405 69 -119 14 -481 20 -645 11z"/>
<path d="M3563 3815 c-77 -14 -197 -67 -253 -112 -178 -142 -263 -351 -232
-565 20 -137 66 -232 161 -331 59 -61 183 -144 232 -154 16 -3 33 -11 39 -18
7 -8 9 -374 8 -1124 l-3 -1112 -370 -2 -370 -2 -3 -154 c-2 -117 1 -156 10
-163 7 -4 409 -8 894 -8 671 0 883 3 892 12 18 18 17 292 -2 307 -10 8 -114
11 -375 9 l-361 -3 0 1122 0 1121 47 16 c77 26 174 90 234 152 57 61 122 166
135 219 4 17 12 36 18 44 16 21 15 286 -1 303 -7 6 -13 21 -13 33 0 11 -13 46
-30 78 -91 181 -253 300 -454 336 -74 14 -111 13 -203 -4z"/>
</g>
</svg>
