<?xml version="1.0" standalone="no"?>
<!DOCTYPE svg PUBLIC "-//W3C//DTD SVG 20010904//EN"
 "http://www.w3.org/TR/2001/REC-SVG-20010904/DTD/svg10.dtd">
<svg version="1.0" xmlns="http://www.w3.org/2000/svg"
 width="734.000000pt" height="734.000000pt" viewBox="0 0 734.000000 734.000000"
 preserveAspectRatio="xMidYMid meet">

<g transform="translate(0.000000,734.000000) scale(0.100000,-0.100000)"
fill="#000000" stroke="none">
<path d="M309 6561 c-102 -33 -185 -106 -229 -202 -19 -43 -20 -75 -20 -2310
l0 -2266 30 -60 c37 -73 101 -135 178 -171 l57 -27 1353 -3 1352 -2 0 -450 0
-450 -500 0 -500 0 0 -90 0 -90 1630 0 1630 0 0 90 0 90 -495 0 -495 0 0 450
0 450 1353 2 1352 3 57 28 c76 37 143 104 176 175 l27 57 0 2265 0 2265 -22
48 c-33 70 -113 149 -186 183 l-62 29 -3315 2 c-3163 2 -3318 1 -3371 -16z
m6678 -190 c26 -12 52 -35 70 -62 l28 -43 0 -2205 c0 -1213 -3 -2218 -7 -2233
-11 -38 -57 -88 -95 -104 -27 -12 -566 -14 -3323 -14 -3270 0 -3291 0 -3330
20 -24 12 -49 37 -65 63 l-25 44 0 2206 c0 1534 3 2214 11 2234 14 37 57 82
94 99 25 11 592 13 3315 13 3206 1 3286 0 3327 -18z m-2877 -5301 l0 -450
-445 0 -445 0 0 450 0 450 445 0 445 0 0 -450z"/>
<path d="M500 4050 l0 -2080 3160 0 3160 0 0 2080 0 2080 -3160 0 -3160 0 0
-2080z m6130 0 l0 -1890 -2970 0 -2970 0 0 1890 0 1890 2970 0 2970 0 0 -1890z"/>
<path d="M1767 5583 c-4 -3 -7 -159 -7 -345 l0 -338 345 0 345 0 0 75 c0 41 4
75 9 75 24 0 227 -77 316 -120 311 -149 567 -396 713 -686 119 -237 179 -503
189 -846 l6 -197 -124 -3 -124 -3 -3 -342 -2 -343 345 0 345 0 -2 343 -3 342
-121 3 -121 3 -6 197 c-7 217 -23 345 -67 529 -109 454 -351 806 -720 1045
-47 30 -101 65 -120 77 -31 20 -32 22 -10 19 14 -2 330 -60 704 -129 l678
-124 25 -55 c13 -30 38 -70 56 -89 39 -41 120 -81 165 -81 l32 0 0 -625 c0
-618 0 -624 20 -635 12 -6 28 -9 38 -6 9 3 112 124 227 269 l210 264 119 7
c66 3 215 6 332 6 117 0 224 4 238 10 34 12 35 58 4 87 -13 11 -228 174 -478
363 -250 189 -461 349 -469 356 -12 11 -11 20 7 63 29 66 29 159 1 221 -81
180 -326 217 -453 69 l-34 -40 -955 175 c-526 97 -958 176 -961 176 -3 0 -7
53 -8 118 l-3 117 -336 3 c-184 1 -338 -1 -342 -5z m493 -338 l0 -155 -155 0
-155 0 0 155 0 155 155 0 155 0 0 -155z m2828 -975 c171 -129 266 -207 259
-212 -7 -4 -84 -8 -172 -8 l-160 -1 -107 -136 -108 -136 0 353 c0 193 4 350 9
348 4 -1 130 -95 279 -208z m-1158 -1415 l0 -155 -155 0 -155 0 0 155 0 155
155 0 155 0 0 -155z"/>
</g>
</svg>
