<?xml version="1.0" standalone="no"?>
<!DOCTYPE svg PUBLIC "-//W3C//DTD SVG 20010904//EN"
 "http://www.w3.org/TR/2001/REC-SVG-20010904/DTD/svg10.dtd">
<svg version="1.0" xmlns="http://www.w3.org/2000/svg"
 width="666.000000pt" height="662.000000pt" viewBox="0 0 666.000000 662.000000"
 preserveAspectRatio="xMidYMid meet">

<g transform="translate(0.000000,662.000000) scale(0.100000,-0.100000)"
fill="#000000" stroke="none">
<path d="M4655 5884 c-22 -2 -96 -9 -165 -15 -1001 -88 -2209 -618 -3096
-1356 -722 -602 -1196 -1294 -1326 -1937 -19 -92 -23 -144 -23 -301 0 -199 6
-241 52 -390 65 -210 208 -418 385 -559 83 -66 216 -152 224 -144 5 6 45 161
41 164 -1 1 -38 26 -81 54 -104 68 -221 186 -295 299 -225 343 -222 799 10
1313 92 205 254 461 435 688 128 161 478 514 654 660 1139 947 2646 1481 3770
1334 656 -85 1088 -416 1192 -913 26 -121 28 -335 4 -467 -68 -384 -260 -767
-592 -1184 -128 -161 -477 -513 -654 -660 -734 -611 -1653 -1069 -2520 -1259
-171 -37 -302 -58 -486 -79 l-147 -17 -3 -55 c-2 -30 -6 -67 -9 -82 -4 -26 -2
-28 28 -28 57 0 298 30 447 56 849 146 1791 567 2547 1138 977 737 1573 1654
1573 2416 0 705 -512 1191 -1375 1305 -113 15 -503 28 -590 19z"/>
<path d="M4931 5239 c-53 -17 -76 -32 -127 -83 -54 -54 -65 -72 -84 -135 -48
-158 16 -312 162 -392 58 -32 69 -34 153 -34 78 0 97 4 146 28 66 32 132 99
162 165 17 37 22 66 22 137 0 84 -2 94 -34 153 -80 147 -243 212 -400 161z
m175 -168 c62 -28 89 -73 89 -148 0 -67 -16 -98 -69 -137 -41 -31 -139 -29
-185 3 -38 27 -70 90 -71 137 0 51 40 115 90 141 52 28 91 29 146 4z"/>
<path d="M3135 4746 c-213 -35 -397 -129 -551 -281 -93 -92 -150 -173 -206
-291 -69 -148 -82 -214 -82 -419 0 -167 2 -186 27 -266 54 -177 138 -319 257
-439 120 -119 262 -203 439 -257 80 -25 99 -27 266 -27 205 0 271 13 419 82
118 56 199 113 291 206 252 254 348 606 260 951 -73 289 -286 542 -563 667
-157 71 -388 102 -557 74z m378 -191 c282 -81 490 -290 572 -570 130 -451
-140 -917 -600 -1035 -99 -26 -267 -28 -373 -6 -259 54 -482 239 -590 488 -91
211 -86 467 13 677 176 370 589 559 978 446z"/>
<path d="M5265 4302 c-38 -14 -72 -27 -74 -28 -1 -2 4 -31 13 -66 32 -128 17
-299 -39 -458 -237 -663 -1153 -1367 -2100 -1615 -820 -215 -1472 -50 -1599
405 -50 182 -17 390 103 628 78 154 163 276 317 447 l71 80 2 100 c0 55 4 108
7 118 11 35 -28 3 -139 -112 -295 -308 -469 -601 -533 -898 -22 -103 -22 -285
0 -378 40 -169 155 -336 301 -440 222 -159 572 -236 940 -206 542 44 988 186
1505 479 709 401 1224 982 1329 1499 23 109 27 266 11 343 -18 81 -32 130 -39
129 -3 0 -37 -12 -76 -27z"/>
<path d="M1258 1405 c-95 -35 -172 -116 -205 -211 -22 -66 -15 -185 17 -249
31 -63 92 -124 155 -156 42 -20 64 -24 145 -24 111 0 167 21 235 90 69 68 90
124 90 235 0 81 -4 103 -24 145 -32 63 -93 124 -156 155 -61 30 -197 38 -257
15z m196 -174 c60 -33 91 -108 76 -178 -18 -77 -79 -125 -160 -125 -194 0
-226 279 -37 322 40 9 83 2 121 -19z"/>
</g>
</svg>
