<?xml version="1.0" standalone="no"?>
<!DOCTYPE svg PUBLIC "-//W3C//DTD SVG 20010904//EN"
 "http://www.w3.org/TR/2001/REC-SVG-20010904/DTD/svg10.dtd">
<svg version="1.0" xmlns="http://www.w3.org/2000/svg"
 width="733.000000pt" height="734.000000pt" viewBox="0 0 733.000000 734.000000"
 preserveAspectRatio="xMidYMid meet">

<g transform="translate(0.000000,734.000000) scale(0.100000,-0.100000)"
fill="#000000" stroke="none">
<path d="M3955 7238 c-27 -11 -63 -23 -80 -28 -82 -23 -311 -130 -352 -164
-28 -24 -63 -97 -63 -134 0 -14 28 -89 80 -217 16 -38 31 -80 35 -92 3 -11 12
-27 20 -33 8 -7 15 -20 15 -28 0 -12 -3 -13 -12 -4 -18 18 -46 14 -66 -10 -9
-11 -53 -63 -97 -114 -115 -135 -185 -219 -204 -247 -9 -13 -33 -49 -53 -79
-44 -66 -78 -95 -127 -107 -37 -10 -101 -2 -136 16 -62 32 -138 63 -155 63
-11 0 -42 9 -70 20 -69 27 -91 25 -139 -12 -40 -33 -91 -121 -142 -248 -12
-30 -38 -91 -56 -135 -79 -184 -86 -221 -53 -285 26 -50 52 -68 222 -149 87
-42 155 -81 173 -100 l30 -32 3 -378 3 -377 -113 -51 c-62 -28 -133 -58 -158
-67 -157 -57 -206 -174 -138 -331 76 -173 102 -235 118 -285 29 -90 74 -149
137 -177 43 -20 64 -24 96 -19 61 10 120 32 160 59 74 50 204 56 272 11 21
-14 255 -261 328 -346 15 -18 59 -68 97 -111 47 -52 70 -85 70 -102 0 -14 -27
-76 -59 -138 -74 -141 -87 -179 -72 -218 6 -16 16 -43 22 -59 14 -38 68 -74
221 -151 271 -136 384 -149 484 -57 42 39 114 150 185 288 l34 65 378 3 c249
1 385 -1 397 -8 26 -14 56 -75 91 -183 38 -115 60 -157 104 -195 33 -30 41
-32 111 -32 49 0 93 7 127 19 111 41 266 109 337 148 62 33 80 49 102 89 41
74 39 161 -8 305 -20 61 -33 121 -30 133 3 11 133 148 289 303 l283 283 55
-21 c216 -82 264 -91 321 -63 49 24 136 129 173 209 127 271 145 319 145 392
0 37 -5 45 -47 80 -44 36 -119 87 -283 191 -36 23 -75 49 -88 58 l-23 16 2
341 c3 434 -10 401 190 506 173 91 239 157 239 240 0 38 -22 123 -50 192 -112
278 -139 334 -169 363 -74 70 -149 60 -435 -59 l-90 -37 -77 84 c-43 46 -78
87 -79 92 0 13 -210 225 -241 245 -14 9 -56 44 -94 78 l-69 62 37 108 c102
300 101 378 -4 460 -30 23 -70 47 -89 53 -43 14 -60 21 -131 54 -31 14 -68 26
-82 26 -14 0 -29 5 -32 10 -12 19 -77 40 -124 40 -46 0 -134 -27 -174 -53 -13
-8 -28 -35 -35 -63 -35 -128 -84 -204 -166 -259 -55 -36 -58 -37 -168 -41 -62
-2 -117 -3 -123 -3 -5 0 -104 4 -220 7 -271 9 -266 7 -349 167 -71 136 -93
170 -136 209 -38 34 -44 36 -108 35 -41 -1 -86 -8 -117 -21z m1084 -1073 c24
-8 54 -15 68 -15 41 0 240 -72 331 -120 143 -76 286 -178 345 -247 18 -20 52
-60 77 -88 25 -27 52 -60 60 -71 8 -12 35 -50 59 -85 103 -151 166 -307 221
-554 12 -54 12 -389 -1 -445 -6 -25 -14 -63 -18 -85 -33 -169 -158 -430 -278
-581 -158 -200 -307 -306 -628 -450 -55 -25 -221 -61 -340 -75 -96 -12 -329
-5 -380 11 -16 5 -73 19 -125 31 -104 24 -119 30 -260 98 -152 73 -254 144
-370 257 -121 118 -194 220 -268 374 -89 185 -115 262 -134 395 -5 39 -14 86
-19 105 -19 65 2 358 32 465 14 47 52 162 74 223 27 76 111 224 185 326 110
153 306 313 500 407 110 54 268 109 311 109 17 0 40 6 52 12 35 20 130 27 302
23 110 -3 174 -9 204 -20z"/>
<path d="M5134 5491 c-21 -16 -100 -92 -174 -170 -343 -359 -466 -481 -481
-481 -10 0 -30 10 -46 23 -15 12 -54 40 -86 62 -71 48 -86 42 -104 -36 -6 -30
-18 -76 -27 -104 -8 -27 -21 -76 -30 -108 -8 -31 -18 -61 -21 -66 -3 -6 -9
-29 -14 -53 -5 -24 -17 -68 -26 -98 -9 -30 -22 -80 -30 -110 -8 -30 -21 -82
-30 -115 -9 -33 -22 -85 -30 -115 -7 -30 -18 -70 -25 -88 -11 -28 -10 -36 5
-52 10 -11 21 -17 25 -15 7 5 106 32 145 40 23 5 116 32 160 47 17 5 53 16 80
23 28 7 75 20 105 29 30 10 80 23 110 31 88 22 161 42 220 60 30 9 69 19 85
22 39 7 55 21 48 41 -4 8 -33 54 -65 101 -32 47 -58 90 -58 95 0 5 150 157
334 337 352 347 375 375 360 443 -9 41 -35 77 -119 164 -99 104 -130 122 -208
122 -55 0 -70 -4 -103 -29z"/>
<path d="M1740 3540 c-8 -5 -45 -10 -81 -10 -106 0 -154 -44 -171 -155 -19
-127 -25 -153 -43 -177 -20 -27 -106 -74 -215 -118 -30 -12 -86 -35 -125 -51
-38 -15 -77 -29 -85 -31 -19 -3 -61 24 -125 80 -27 24 -71 55 -98 69 -49 24
-50 24 -88 7 -48 -21 -261 -235 -272 -272 -17 -59 16 -127 115 -243 26 -31 48
-59 48 -63 0 -5 -64 -162 -94 -231 -8 -16 -28 -62 -45 -101 -17 -39 -31 -75
-31 -81 0 -27 -84 -65 -134 -59 -16 2 -43 -1 -60 -5 -17 -4 -53 -14 -80 -21
-94 -25 -112 -77 -104 -302 3 -96 8 -129 22 -150 28 -43 96 -66 255 -86 41 -5
78 -15 82 -22 11 -16 67 -149 109 -253 17 -44 40 -99 51 -123 33 -73 27 -96
-45 -170 -35 -37 -68 -77 -75 -89 -15 -29 -14 -118 1 -146 28 -50 184 -200
232 -223 27 -12 52 -21 55 -19 3 1 25 8 48 14 23 6 66 30 95 54 77 61 117 87
134 87 8 0 51 -17 97 -39 97 -45 141 -63 220 -85 103 -30 156 -104 157 -215 1
-25 9 -62 20 -81 10 -19 24 -45 29 -58 17 -36 92 -66 229 -89 45 -7 136 23
177 58 50 44 78 124 92 262 5 56 7 59 42 74 20 8 54 23 76 33 22 10 76 32 120
50 44 17 94 38 110 45 17 8 54 24 83 36 l53 22 68 -67 c67 -64 135 -105 176
-106 44 0 124 50 194 121 124 127 136 177 72 295 -21 39 -55 92 -74 118 -41
53 -45 31 31 202 23 49 52 124 66 166 33 102 51 134 78 142 13 3 63 6 111 6
98 0 129 11 171 60 40 48 49 99 44 255 -4 154 -16 193 -66 218 -31 16 -97 31
-127 29 -40 -2 -126 29 -159 58 -18 17 -39 45 -46 62 -7 18 -21 56 -33 83 -23
56 -46 118 -83 218 l-26 69 65 66 c35 37 71 81 80 99 21 41 22 115 1 156 -20
39 -169 193 -206 213 -64 34 -150 6 -303 -97 -54 -36 -57 -36 -195 23 -203 86
-236 100 -260 110 -56 23 -55 20 -61 129 -7 114 -13 141 -40 180 -37 53 -211
100 -259 69z m615 -1181 c-59 -200 -84 -290 -100 -359 -18 -77 -45 -171 -50
-180 -3 -4 -9 -36 -15 -71 -13 -85 -35 -162 -46 -166 -5 -2 -47 22 -94 52 -46
30 -94 55 -105 55 -13 -1 -57 -41 -120 -111 -177 -196 -317 -337 -347 -350
-45 -19 -94 10 -201 120 -107 109 -122 142 -91 202 9 19 111 126 227 239 163
159 210 211 209 230 0 22 -50 109 -88 151 -12 13 -12 18 -2 26 14 10 67 27
133 42 22 5 65 17 95 26 30 9 74 21 98 26 24 5 48 12 54 15 6 4 36 13 67 20
31 7 99 25 151 40 181 51 225 61 233 54 4 -3 0 -31 -8 -61z"/>
</g>
</svg>
