<?xml version="1.0" standalone="no"?>
<!DOCTYPE svg PUBLIC "-//W3C//DTD SVG 20010904//EN"
 "http://www.w3.org/TR/2001/REC-SVG-20010904/DTD/svg10.dtd">
<svg version="1.0" xmlns="http://www.w3.org/2000/svg"
 width="734.000000pt" height="734.000000pt" viewBox="0 0 734.000000 734.000000"
 preserveAspectRatio="xMidYMid meet">

<g transform="translate(0.000000,734.000000) scale(0.100000,-0.100000)"
fill="#000000" stroke="none">
<path d="M1927 7141 c-27 -11 -72 -38 -100 -60 -79 -61 -1611 -1600 -1640
-1647 -65 -105 -74 -243 -22 -351 24 -50 112 -143 634 -665 693 -694 654 -663
816 -663 157 0 138 -14 568 414 l377 376 153 -153 152 -152 -486 -487 c-267
-269 -496 -504 -507 -524 -34 -56 -55 -155 -48 -219 11 -94 47 -155 153 -262
54 -54 95 -99 92 -101 -2 -3 -84 -31 -181 -63 -98 -32 -178 -61 -178 -64 0
-11 802 -825 812 -825 6 0 38 80 71 178 l59 179 98 -96 c127 -126 179 -151
305 -151 155 0 134 -16 698 552 l491 494 153 -153 153 -153 -370 -370 c-420
-422 -424 -426 -425 -565 0 -85 20 -151 67 -215 16 -22 297 -306 626 -630 682
-674 639 -640 803 -640 87 0 101 3 152 30 46 24 216 189 878 849 762 760 824
824 853 885 27 58 31 76 31 151 -1 155 25 122 -658 807 -695 697 -660 668
-822 668 -160 0 -145 11 -605 -450 l-395 -395 -152 152 -153 153 263 265 c612
618 704 714 730 765 34 69 48 151 37 218 -16 99 -44 142 -199 300 l-145 148
125 125 125 125 59 -47 c249 -195 565 -332 864 -375 130 -18 326 -7 436 26
119 35 176 67 257 145 l68 65 -170 175 -169 175 -1 615 0 616 70 12 c165 28
284 142 308 296 41 262 -205 477 -456 398 -142 -45 -252 -187 -252 -327 l0
-45 -616 0 -616 0 -174 168 c-97 92 -179 168 -183 170 -4 1 -36 -27 -69 -63
-67 -71 -119 -168 -147 -275 -26 -98 -31 -340 -11 -460 48 -277 181 -575 362
-812 24 -31 44 -60 44 -65 0 -4 -55 -63 -122 -130 l-122 -122 -147 144 c-182
180 -218 200 -354 200 -158 -1 -137 15 -700 -546 l-490 -489 -153 153 -152
152 400 400 c433 433 441 443 456 566 8 69 -16 166 -56 229 -16 25 -296 311
-622 637 -673 672 -641 645 -798 650 -65 2 -96 -1 -133 -16z m187 -186 c17 -8
92 -76 166 -150 l135 -135 -435 -435 -435 -435 -185 185 -185 185 380 380
c236 236 395 388 420 400 48 24 95 25 139 5z m4667 -140 c81 -52 101 -169 42
-242 -58 -72 -131 -90 -210 -52 -105 51 -130 179 -50 265 60 65 144 76 218 29z
m-1032 -1089 l984 -984 -59 -22 c-142 -53 -281 -62 -449 -30 -353 69 -673 250
-981 555 -270 269 -439 547 -522 859 -24 91 -26 119 -27 276 0 118 4 188 13
215 20 60 44 115 51 115 3 0 449 -443 990 -984z m-3011 631 l182 -182 -435
-435 -435 -435 -185 185 -185 185 432 432 c238 238 435 433 438 433 3 0 87
-82 188 -183z m3339 -164 l-267 -268 -267 268 -268 267 535 0 535 0 -268 -267z
m393 -400 l0 -528 -265 265 -265 265 262 262 c145 145 264 263 265 263 2 0 3
-237 3 -527z m-5455 -523 l-405 -405 -116 115 c-156 154 -174 180 -174 244 0
28 7 64 15 79 8 16 171 187 362 381 l347 354 188 -181 189 -181 -406 -406z
m2320 474 c24 -52 19 -114 -14 -165 -16 -24 -195 -209 -397 -412 l-369 -367
-185 185 -185 185 435 435 435 435 132 -132 c73 -73 140 -147 148 -164z
m-1600 -394 l180 -180 -405 -405 -405 -405 -182 182 -183 183 402 402 c222
222 405 403 408 403 3 0 86 -81 185 -180z m2523 -154 c40 -21 938 -913 956
-949 21 -45 21 -99 0 -140 -20 -37 -2024 -2059 -2069 -2086 -44 -27 -88 -34
-137 -21 -38 11 -94 63 -492 458 -246 246 -461 467 -477 491 -33 51 -38 113
-14 164 8 18 475 492 1038 1055 806 806 1031 1026 1063 1037 41 15 92 12 132
-9z m907 -134 c4 -11 -31 -53 -112 -134 l-118 -118 -60 60 -60 60 119 119 119
119 53 -45 c29 -25 56 -53 59 -61z m-3065 -718 c-179 -179 -346 -343 -373
-364 -32 -26 -62 -41 -91 -45 -71 -11 -115 16 -261 164 l-130 131 405 405 405
405 185 -185 185 -185 -325 -326z m3655 -1023 c23 -11 95 -75 170 -150 l130
-131 -435 -435 -435 -435 -185 185 -185 185 380 380 c236 236 395 388 420 400
50 25 88 25 140 1z m613 -594 l182 -182 -435 -435 -435 -435 -185 185 -185
185 432 432 c238 238 435 433 438 433 3 0 87 -82 188 -183z m-3884 -611 c-15
-47 -31 -86 -34 -86 -3 0 -97 92 -209 204 l-203 204 88 30 89 30 149 -148 148
-147 -28 -87z m2166 -481 l-405 -405 -132 132 c-73 73 -140 147 -148 164 -20
42 -19 123 1 154 9 14 175 184 368 378 l351 352 185 -185 185 -185 -405 -405z
m2316 483 c18 -35 18 -112 -1 -151 -8 -18 -187 -204 -398 -415 l-382 -382
-185 185 -185 185 435 435 435 435 133 -133 c73 -72 140 -144 148 -159z
m-1588 -401 l182 -182 -405 -405 -405 -405 -185 185 -185 185 402 402 c222
222 405 403 408 403 3 0 87 -82 188 -183z m327 -1027 c-224 -224 -365 -358
-391 -370 -91 -45 -141 -21 -309 149 l-130 131 405 405 405 405 185 -185 185
-185 -350 -350z"/>
</g>
</svg>
